<?xml version="1.0" standalone="no"?><!DOCTYPE svg PUBLIC "-//W3C//DTD SVG 1.1//EN" "http://www.w3.org/Graphics/SVG/1.1/DTD/svg11.dtd"><svg t="1715351858125" class="icon" viewBox="0 0 1024 1024" version="1.1" xmlns="http://www.w3.org/2000/svg" p-id="7337" xmlns:xlink="http://www.w3.org/1999/xlink" width="200" height="200"><path d="M168.648 870.207c-20.435 0-37-16.565-37-37V190.793c0-20.434 16.565-37 37-37s37 16.566 37 37v642.413c0 20.435-16.565 37.001-37 37.001z" fill="#14ad1e" p-id="7338"></path><path d="M855.352 870.207H168.648c-20.435 0-37-16.565-37-37s16.565-37 37-37h686.704c20.435 0 37 16.565 37 37s-16.565 37-37 37z" fill="#14ad1e" p-id="7339"></path><path d="M306.12 608.663c-9.061 0-18.139-3.306-25.276-9.987-14.919-13.964-15.694-37.378-1.73-52.297l156.59-167.302a37.001 37.001 0 0 1 52.752-1.297l144.545 139.966 181.941-212.053c13.306-15.508 36.665-17.294 52.174-3.987 15.508 13.306 17.293 36.665 3.987 52.174l-207.53 241.877a37.001 37.001 0 0 1-53.819 2.488L464.015 457.12 333.142 596.947c-7.284 7.782-17.142 11.716-27.022 11.716z" fill="#14ad1e" p-id="7340"></path></svg>