<?xml version="1.0" standalone="no"?><!DOCTYPE svg PUBLIC "-//W3C//DTD SVG 1.1//EN" "http://www.w3.org/Graphics/SVG/1.1/DTD/svg11.dtd"><svg t="1715440017324" class="icon" viewBox="0 0 1024 1024" version="1.1" xmlns="http://www.w3.org/2000/svg" p-id="5186" xmlns:xlink="http://www.w3.org/1999/xlink" width="200" height="200"><path d="M432.46 960.18q20.96-0.95 35.25-16.19 14.28-16.2 14.28-39.06V536.29q0-22.86-14.28-38.1-14.29-16.2-35.25-17.15H50.49q-21.91 0.95-35.25 17.15Q0.95 513.43 0 536.29v368.64q0.95 22.86 15.24 39.06 13.34 15.24 35.25 16.19h381.97z m-25.72-405.79v322.92H76.2V554.39h330.54z m567.73 345.78q20.95 0 34.29-16.2 15.24-15.24 15.24-38.1V536.29q0-22.86-15.24-38.1-13.34-16.2-34.29-17.15H592.49q-21.91 0.95-35.24 17.15-14.29 15.24-15.24 38.1v309.58q0.95 22.86 15.24 38.1 13.33 16.2 35.24 16.2h381.98zM947.8 554.39v262.9H618.21v-262.9H947.8z m-33.34-136.22q20 0 35.24-15.24 13.34-15.24 13.34-40.01V55.25q0-22.86-13.34-39.06Q934.46 0.95 914.46 0H592.49q-21.91 0.95-35.24 16.19-14.29 16.2-15.24 39.06v307.67q0.95 24.77 15.24 40.01 13.33 15.24 35.24 15.24h321.97zM887.78 73.35V335.3H618.21V73.35h269.57zM372.45 358.16q20.96 0 35.24-15.24 13.34-16.19 14.29-39.05V55.25q-0.95-22.86-14.29-39.06Q393.41 0.95 372.45 0H110.5Q89.54 0.95 75.25 16.19q-13.33 16.2-14.29 39.06v248.62q0.96 22.86 14.29 39.05 14.29 15.24 35.25 15.24h261.95zM346.73 73.35v201.94H137.17V73.35h209.56z" fill="#1296db" p-id="5187"></path></svg>